# xmcd
#
# Track frame offsets:
#	150
#	16623
#	35369
#	51092
#	70579
#	89703
#	103306
#	121972
#	138984
#	156124
#	162821
#	179770
#	198530
#	214576
#	235434
#	258565
#	274611
#	290126
#
# Disc length: 4111 seconds
#
# Revision: 0
# Processed by: cddbd v1.4PL0 Copyright (c) Steve Scherf et al.
# Submitted via: dBpowerAMP V4.0
#
DISCID=0c100d12
DTITLE=Destiny's Child - Survivor
DYEAR=1900
DGENRE=Blues
TTITLE0=Independent women part 1
TTITLE1=Survivor
TTITLE2=Bootylicious
TTITLE3=Nasty girl 
TTITLE4=Fancy
TTITLE5=Apple pie a la mode 
TTITLE6=Sexy daddy 
TTITLE7=Perfect man 
TTITLE8=Independent women part 2
TTITLE9=Happy face
TTITLE10=Dance with me
TTITLE11=My heart still beats
TTITLE12=Emtion
TTITLE13=Brown eyes 
TTITLE14=Dangerously in love
TTITLE15=The story of beauty
TTITLE16=Gospel medley 
TTITLE17=Outro (dc-3) thank you 
EXTD=
EXTT0=
EXTT1=
EXTT2=
EXTT3=
EXTT4=
EXTT5=
EXTT6=
EXTT7=
EXTT8=
EXTT9=
EXTT10=
EXTT11=
EXTT12=
EXTT13=
EXTT14=
EXTT15=
EXTT16=
EXTT17=
PLAYORDER=
